<mxfile host="Electron" modified="2024-04-28T19:10:14.887Z" agent="Mozilla/5.0 (Windows NT 10.0; Win64; x64) AppleWebKit/537.36 (KHTML, like Gecko) draw.io/24.2.5 Chrome/120.0.6099.109 Electron/28.1.0 Safari/537.36" etag="TdnwBdet95FfG_khPN3S" version="24.2.5" type="device">
  <diagram id="C5RBs43oDa-KdzZeNtuy" name="Page-1">
    <mxGraphModel dx="1120" dy="532" grid="1" gridSize="10" guides="1" tooltips="1" connect="1" arrows="1" fold="1" page="1" pageScale="1" pageWidth="827" pageHeight="1169" math="0" shadow="0">
      <root>
        <mxCell id="WIyWlLk6GJQsqaUBKTNV-0" />
        <mxCell id="WIyWlLk6GJQsqaUBKTNV-1" parent="WIyWlLk6GJQsqaUBKTNV-0" />
        <mxCell id="DBMQVKhFxC5dS0YlfR1z-5" value="" style="edgeStyle=orthogonalEdgeStyle;rounded=0;orthogonalLoop=1;jettySize=auto;html=1;" edge="1" parent="WIyWlLk6GJQsqaUBKTNV-1" source="WIyWlLk6GJQsqaUBKTNV-3" target="DBMQVKhFxC5dS0YlfR1z-4">
          <mxGeometry relative="1" as="geometry" />
        </mxCell>
        <mxCell id="WIyWlLk6GJQsqaUBKTNV-3" value="Ask the user for&lt;div&gt;a positive integer&lt;/div&gt;&lt;div&gt;between 1 and 100&lt;/div&gt;" style="rounded=1;whiteSpace=wrap;html=1;fontSize=12;glass=0;strokeWidth=1;shadow=0;" parent="WIyWlLk6GJQsqaUBKTNV-1" vertex="1">
          <mxGeometry x="354" y="80" width="120" height="40" as="geometry" />
        </mxCell>
        <mxCell id="DBMQVKhFxC5dS0YlfR1z-7" value="" style="edgeStyle=orthogonalEdgeStyle;rounded=0;orthogonalLoop=1;jettySize=auto;html=1;" edge="1" parent="WIyWlLk6GJQsqaUBKTNV-1" source="DBMQVKhFxC5dS0YlfR1z-4" target="DBMQVKhFxC5dS0YlfR1z-6">
          <mxGeometry relative="1" as="geometry" />
        </mxCell>
        <mxCell id="DBMQVKhFxC5dS0YlfR1z-4" value="The user input is the current max" style="whiteSpace=wrap;html=1;rounded=1;glass=0;strokeWidth=1;shadow=0;" vertex="1" parent="WIyWlLk6GJQsqaUBKTNV-1">
          <mxGeometry x="354" y="170" width="120" height="60" as="geometry" />
        </mxCell>
        <mxCell id="DBMQVKhFxC5dS0YlfR1z-9" value="" style="edgeStyle=orthogonalEdgeStyle;rounded=0;orthogonalLoop=1;jettySize=auto;html=1;" edge="1" parent="WIyWlLk6GJQsqaUBKTNV-1" source="DBMQVKhFxC5dS0YlfR1z-6" target="DBMQVKhFxC5dS0YlfR1z-8">
          <mxGeometry relative="1" as="geometry" />
        </mxCell>
        <mxCell id="DBMQVKhFxC5dS0YlfR1z-6" value="Generate a random number between 1&lt;div&gt;and 100&lt;/div&gt;" style="whiteSpace=wrap;html=1;rounded=1;glass=0;strokeWidth=1;shadow=0;" vertex="1" parent="WIyWlLk6GJQsqaUBKTNV-1">
          <mxGeometry x="354" y="280" width="120" height="60" as="geometry" />
        </mxCell>
        <mxCell id="DBMQVKhFxC5dS0YlfR1z-13" value="" style="edgeStyle=orthogonalEdgeStyle;rounded=0;orthogonalLoop=1;jettySize=auto;html=1;" edge="1" parent="WIyWlLk6GJQsqaUBKTNV-1" source="DBMQVKhFxC5dS0YlfR1z-8" target="DBMQVKhFxC5dS0YlfR1z-12">
          <mxGeometry relative="1" as="geometry" />
        </mxCell>
        <mxCell id="DBMQVKhFxC5dS0YlfR1z-14" value="YES" style="edgeLabel;html=1;align=center;verticalAlign=middle;resizable=0;points=[];" vertex="1" connectable="0" parent="DBMQVKhFxC5dS0YlfR1z-13">
          <mxGeometry x="-0.22" y="2" relative="1" as="geometry">
            <mxPoint as="offset" />
          </mxGeometry>
        </mxCell>
        <mxCell id="DBMQVKhFxC5dS0YlfR1z-22" value="" style="edgeStyle=orthogonalEdgeStyle;rounded=0;orthogonalLoop=1;jettySize=auto;html=1;" edge="1" parent="WIyWlLk6GJQsqaUBKTNV-1" source="DBMQVKhFxC5dS0YlfR1z-8" target="DBMQVKhFxC5dS0YlfR1z-21">
          <mxGeometry relative="1" as="geometry" />
        </mxCell>
        <mxCell id="DBMQVKhFxC5dS0YlfR1z-23" value="NO" style="edgeLabel;html=1;align=center;verticalAlign=middle;resizable=0;points=[];" vertex="1" connectable="0" parent="DBMQVKhFxC5dS0YlfR1z-22">
          <mxGeometry x="-0.7248" y="4" relative="1" as="geometry">
            <mxPoint as="offset" />
          </mxGeometry>
        </mxCell>
        <mxCell id="DBMQVKhFxC5dS0YlfR1z-8" value="The generated number&lt;div&gt;is greater than the&lt;/div&gt;&lt;div&gt;current max?&lt;/div&gt;" style="rhombus;whiteSpace=wrap;html=1;rounded=1;glass=0;strokeWidth=1;shadow=0;" vertex="1" parent="WIyWlLk6GJQsqaUBKTNV-1">
          <mxGeometry x="314" y="390" width="200" height="100" as="geometry" />
        </mxCell>
        <mxCell id="DBMQVKhFxC5dS0YlfR1z-16" value="" style="edgeStyle=orthogonalEdgeStyle;rounded=0;orthogonalLoop=1;jettySize=auto;html=1;" edge="1" parent="WIyWlLk6GJQsqaUBKTNV-1" source="DBMQVKhFxC5dS0YlfR1z-12" target="DBMQVKhFxC5dS0YlfR1z-15">
          <mxGeometry relative="1" as="geometry" />
        </mxCell>
        <mxCell id="DBMQVKhFxC5dS0YlfR1z-12" value="Substitute the generated number&lt;div&gt;to the current max&lt;/div&gt;" style="whiteSpace=wrap;html=1;rounded=1;glass=0;strokeWidth=1;shadow=0;" vertex="1" parent="WIyWlLk6GJQsqaUBKTNV-1">
          <mxGeometry x="354" y="590" width="120" height="60" as="geometry" />
        </mxCell>
        <mxCell id="DBMQVKhFxC5dS0YlfR1z-18" value="" style="edgeStyle=orthogonalEdgeStyle;rounded=0;orthogonalLoop=1;jettySize=auto;html=1;" edge="1" parent="WIyWlLk6GJQsqaUBKTNV-1" source="DBMQVKhFxC5dS0YlfR1z-15" target="DBMQVKhFxC5dS0YlfR1z-17">
          <mxGeometry relative="1" as="geometry" />
        </mxCell>
        <mxCell id="DBMQVKhFxC5dS0YlfR1z-15" value="Print the generated number and a clue that a substitution occured" style="whiteSpace=wrap;html=1;rounded=1;glass=0;strokeWidth=1;shadow=0;" vertex="1" parent="WIyWlLk6GJQsqaUBKTNV-1">
          <mxGeometry x="354" y="730" width="120" height="60" as="geometry" />
        </mxCell>
        <mxCell id="DBMQVKhFxC5dS0YlfR1z-19" style="edgeStyle=orthogonalEdgeStyle;rounded=0;orthogonalLoop=1;jettySize=auto;html=1;exitX=0;exitY=0.5;exitDx=0;exitDy=0;entryX=0;entryY=0.5;entryDx=0;entryDy=0;" edge="1" parent="WIyWlLk6GJQsqaUBKTNV-1" source="DBMQVKhFxC5dS0YlfR1z-17" target="DBMQVKhFxC5dS0YlfR1z-6">
          <mxGeometry relative="1" as="geometry">
            <Array as="points">
              <mxPoint x="250" y="900" />
              <mxPoint x="250" y="310" />
            </Array>
          </mxGeometry>
        </mxCell>
        <mxCell id="DBMQVKhFxC5dS0YlfR1z-20" value="NO" style="edgeLabel;html=1;align=center;verticalAlign=middle;resizable=0;points=[];" vertex="1" connectable="0" parent="DBMQVKhFxC5dS0YlfR1z-19">
          <mxGeometry x="-0.1631" y="-2" relative="1" as="geometry">
            <mxPoint as="offset" />
          </mxGeometry>
        </mxCell>
        <mxCell id="DBMQVKhFxC5dS0YlfR1z-26" value="" style="edgeStyle=orthogonalEdgeStyle;rounded=0;orthogonalLoop=1;jettySize=auto;html=1;" edge="1" parent="WIyWlLk6GJQsqaUBKTNV-1" source="DBMQVKhFxC5dS0YlfR1z-17" target="DBMQVKhFxC5dS0YlfR1z-25">
          <mxGeometry relative="1" as="geometry" />
        </mxCell>
        <mxCell id="DBMQVKhFxC5dS0YlfR1z-27" value="YES" style="edgeLabel;html=1;align=center;verticalAlign=middle;resizable=0;points=[];" vertex="1" connectable="0" parent="DBMQVKhFxC5dS0YlfR1z-26">
          <mxGeometry x="-0.1143" relative="1" as="geometry">
            <mxPoint as="offset" />
          </mxGeometry>
        </mxCell>
        <mxCell id="DBMQVKhFxC5dS0YlfR1z-17" value="Have been&lt;div&gt;generated 100&lt;/div&gt;&lt;div&gt;numbers?&lt;/div&gt;" style="rhombus;whiteSpace=wrap;html=1;rounded=1;glass=0;strokeWidth=1;shadow=0;" vertex="1" parent="WIyWlLk6GJQsqaUBKTNV-1">
          <mxGeometry x="347" y="860" width="134" height="80" as="geometry" />
        </mxCell>
        <mxCell id="DBMQVKhFxC5dS0YlfR1z-24" style="edgeStyle=orthogonalEdgeStyle;rounded=0;orthogonalLoop=1;jettySize=auto;html=1;exitX=0.5;exitY=1;exitDx=0;exitDy=0;entryX=1;entryY=0.5;entryDx=0;entryDy=0;" edge="1" parent="WIyWlLk6GJQsqaUBKTNV-1" source="DBMQVKhFxC5dS0YlfR1z-21" target="DBMQVKhFxC5dS0YlfR1z-17">
          <mxGeometry relative="1" as="geometry" />
        </mxCell>
        <mxCell id="DBMQVKhFxC5dS0YlfR1z-21" value="Print the generated number" style="whiteSpace=wrap;html=1;rounded=1;glass=0;strokeWidth=1;shadow=0;" vertex="1" parent="WIyWlLk6GJQsqaUBKTNV-1">
          <mxGeometry x="600" y="730" width="120" height="60" as="geometry" />
        </mxCell>
        <mxCell id="DBMQVKhFxC5dS0YlfR1z-25" value="Print the current max&lt;div&gt;and the number of substitutions occured&lt;/div&gt;" style="whiteSpace=wrap;html=1;rounded=1;glass=0;strokeWidth=1;shadow=0;" vertex="1" parent="WIyWlLk6GJQsqaUBKTNV-1">
          <mxGeometry x="354" y="1010" width="120" height="60" as="geometry" />
        </mxCell>
      </root>
    </mxGraphModel>
  </diagram>
</mxfile>
